<?xml version="1.0" encoding="UTF-8" standalone="no"?>
<!-- Created with Inkscape (http://www.inkscape.org/) -->

<svg
   width="512"
   height="512"
   viewBox="0 0 135.46666 135.46666"
   version="1.1"
   id="svg5"
   inkscape:version="1.1.1 (3bf5ae0d25, 2021-09-20)"
   sodipodi:docname="logo.svg"
   xmlns:inkscape="http://www.inkscape.org/namespaces/inkscape"
   xmlns:sodipodi="http://sodipodi.sourceforge.net/DTD/sodipodi-0.dtd"
   xmlns="http://www.w3.org/2000/svg"
   xmlns:svg="http://www.w3.org/2000/svg">
  <sodipodi:namedview
     id="namedview7"
     pagecolor="#ffffff"
     bordercolor="#666666"
     borderopacity="1.0"
     inkscape:pageshadow="2"
     inkscape:pageopacity="0.0"
     inkscape:pagecheckerboard="0"
     inkscape:document-units="mm"
     showgrid="false"
     units="px"
     inkscape:zoom="0.77771465"
     inkscape:cx="257.16373"
     inkscape:cy="333.66994"
     inkscape:window-width="2560"
     inkscape:window-height="1351"
     inkscape:window-x="-9"
     inkscape:window-y="-9"
     inkscape:window-maximized="1"
     inkscape:current-layer="layer2" />
  <defs
     id="defs2" />
  <g
     inkscape:groupmode="layer"
     id="layer2"
     inkscape:label="图层 2">
    <rect
       style="fill:#cdde87;stroke-width:0.182755"
       id="rect1062"
       width="100%"
       height="100%"
       x="0"
       y="0"
       inkscape:export-filename="D:\SCD\multiMenberPlayerSyncer\rect1062.png"
       inkscape:export-xdpi="96.000008"
       inkscape:export-ydpi="96.000008" />
  </g>
  <g
     inkscape:label="图层 1"
     inkscape:groupmode="layer"
     id="layer1">
    <circle
       style="fill:#000000;stroke:#000000;stroke-width:0.264583;fill-opacity:1"
       id="path11530"
       cx="32.489689"
       cy="33.850513"
       r="23.984535" />
    <rect
       style="fill:#000000;fill-opacity:1;stroke:#000000;stroke-width:0.264583"
       id="rect11776"
       width="9.1855669"
       height="48.649487"
       x="76.546387"
       y="11.56701" />
    <rect
       style="fill:#000000;fill-opacity:1;stroke:#000000;stroke-width:0.264583"
       id="rect11776-2"
       width="9.1855669"
       height="48.649487"
       x="113.11856"
       y="11.737112" />
    <path
       style="fill:#cdde87;stroke:#000000;stroke-width:0.264583px;stroke-linecap:butt;stroke-linejoin:miter;stroke-opacity:1"
       d="M 22.113402,20.072165 V 48.309278 L 46.740075,34.091062 Z"
       id="path12279" />
    <path
       style="fill:none;stroke:#000000;stroke-width:0.264583px;stroke-linecap:butt;stroke-linejoin:miter;stroke-opacity:1"
       d="m 20.412371,74.164947 c 45.287493,0.237555 43.904751,35.046243 0.680412,35.041243"
       id="path13559"
       sodipodi:nodetypes="cc" />
    <path
       style="fill:none;stroke:#000000;stroke-width:0.264583px;stroke-linecap:butt;stroke-linejoin:miter;stroke-opacity:1"
       d="m 12.927835,65.319587 c 56.474226,0 78.927834,51.711343 0,51.711343"
       id="path14283" />
    <rect
       style="fill:#000000;fill-opacity:1;stroke:#000000;stroke-width:0.32397"
       id="rect14307"
       width="8.1055603"
       height="66.280823"
       x="12.957528"
       y="65.349281" />
    <path
       style="fill:#000000;fill-opacity:1;stroke:#000000;stroke-width:0.340207"
       d="m 21.432989,113.06789 v -3.38603 l 5.018042,-0.41356 c 13.580934,-1.11928 22.869232,-5.48169 26.571253,-12.479643 0.799555,-1.5114 0.899901,-2.080286 0.900134,-5.103092 2.25e-4,-2.922307 -0.113467,-3.61795 -0.806225,-4.93299 -3.819716,-7.25085 -13.825588,-11.779932 -28.19609,-12.762743 l -3.487114,-0.238487 v -3.887391 -3.887391 l 1.786083,0.213969 c 13.155367,1.575977 25.735143,6.820453 33.06802,13.785969 8.418711,7.996952 9.687491,17.082762 3.367172,24.112479 -4.985816,5.54543 -14.364779,9.41187 -27.683074,11.41225 -1.902489,0.28575 -5.051875,0.617 -6.998635,0.73611 l -3.539566,0.21657 z"
       id="path14426" />
    <text
       xml:space="preserve"
       style="font-style:normal;font-weight:normal;font-size:113.109px;line-height:1.25;font-family:sans-serif;fill:#000000;fill-opacity:1;stroke:none;stroke-width:2.82772"
       x="61.458801"
       y="141.40669"
       id="text16469"
       transform="scale(1.0814166,0.92471299)"><tspan
         sodipodi:role="line"
         id="tspan16467"
         style="stroke-width:2.82772"
         x="61.458801"
         y="141.40669">s</tspan></text>
    <rect
       style="fill:#cdde87;fill-opacity:1;stroke:none;stroke-width:0.31473;stroke-opacity:1"
       id="rect17629"
       width="6.3933992"
       height="36.937916"
       x="43.96204"
       y="62.651203"
       transform="matrix(0.70442831,-0.70977515,0.65560733,0.755102,0,0)" />
    <rect
       style="fill:#dde9af;fill-opacity:1;stroke:none;stroke-width:0.278824;stroke-opacity:1"
       id="rect17629-5"
       width="5.4760199"
       height="33.847179"
       x="-101.99143"
       y="69.725456"
       transform="matrix(-0.49630929,-0.86814578,0.7183619,-0.69566959,0,0)" />
    <path
       style="fill:none;stroke:#000000;stroke-width:0.264583px;stroke-linecap:butt;stroke-linejoin:miter;stroke-opacity:1"
       d="m 113.11856,11.737112 v 48.649485 0"
       id="path18186" />
    <path
       style="fill:#000000;fill-opacity:1;stroke:#000000;stroke-width:0.445065;stroke-opacity:1"
       d="m 94.81909,41.668214 c -0.79221,-1.280708 -1.440379,-2.477928 -1.440379,-2.660487 0,-0.304628 3.779633,-3.751164 15.259739,-13.914869 l 4.31,-3.815785 v 4.054979 4.054981 l -8.3445,7.304871 -8.344488,7.304875 z"
       id="path18225" />
    <path
       style="fill:none;stroke:#000000;stroke-width:0.264583px;stroke-linecap:butt;stroke-linejoin:miter;stroke-opacity:1"
       d="M 85.731955,11.56701 V 60.216494"
       id="path18395" />
    <path
       style="fill:#000000;fill-opacity:1;stroke:#000000;stroke-width:1.28582;stroke-opacity:1"
       d="m 344.88074,140.8345 -19.64886,-23.68979 0.36158,-15.70372 0.36157,-15.703715 22.53267,26.887025 c 12.39297,14.78786 24.16514,29.03912 26.16039,31.66945 l 3.62772,4.78243 -6.74449,7.7543 c -3.70946,4.26487 -6.80237,7.7407 -6.87311,7.72406 -0.0707,-0.0166 -8.9706,-10.69065 -19.77747,-23.72004 z"
       id="path18434"
       transform="scale(0.26458333)" />
  </g>
</svg>
